PathFileType	4	(X/Y/Z)	C:/Users/beibeiliu/ov580/test_trc/User3\sequence.24_training_dense_right.trc
DataRate	CameraRate	NumFrames	NumMarkers	Units	OrigDataRate	OrigDataStartFrame	OrigNumFrames
120	120	12	19	mm	120	51	100
Frame#	Time	ThumbCMC			ThumbMCP			ThumbIP			ThumbTip			IndexMCP			IndexPIP			IndexTip			MiddleMCP			MiddlePIP			MiddleTip			RingMCP			RingPIP			RingTip			PinkyMCP			PinkyPIP			PinkyTip			BackHand1			BackHand2			BackHand3	
		X0	Y0	Z0	X1	Y1	Z1	X2	Y2	Z2	X3	Y3	Z3	X4	Y4	Z4	X5	Y5	Z5	X6	Y6	Z6	X7	Y7	Z7	X8	Y8	Z8	X9	Y9	Z9	X10	Y10	Z10	X11	Y11	Z11	X12	Y12	Z12	X13	Y13	Z13	X14	Y14	Z14	X15	Y15	Z15	X16	Y16	Z16	X17	Y17	Z17	X18	Y18	Z18	
50	0.416667	85.0744	-13.5773	11.0722	67.9712	-20.147	-16.2338	60.2969	-22.6773	-42.4737	67.5562	-27.3147	-70.4879	98.4602	22.7025	-55.7232	86.4156	7.93528	-83.2384	76.6973	-21.7579	-78.6768	114.535	14.3744	-66.9321	101.781	-4.71659	-87.3486	96.2942	-40.7342	-72.4301	134.998	1.04491	-63.0339	122.295	-17.4724	-82.9496	110.609	-47.151	-64.7733	145.556	-12.7932	-54.1095	131.629	-26.6796	-73.2332	122.789	-53.4894	-65.3205	145.193	5.39353	-8.25019	149.956	-5.01976	20.2028	119.614	7.90405	14.9088	
51	0.425	90.436	-13.8067	7.12917	80.0177	-18.5747	-26.8371	74.3184	-23.7402	-52.3804	82.7221	-27.767	-78.2635	108.374	24.8059	-58.566	99.1686	10.6044	-86.7425	86.4146	-20.8119	-80.5202	125.484	17.7494	-66.8587	113.845	-1.7214	-92.2161	102.33	-39.1667	-76.8532	145.526	4.87857	-65.3024	129.836	-16.6311	-86.8921	121.753	-44.9601	-70.5468	155.155	-7.89399	-58.9979	148.263	-25.6857	-75.7213	130.423	-51.5183	-66.1881	152.394	11.0286	-10.7607	158.44	-2.19671	18.4106	122.58	14.0403	10.7236	
52	0.433333	96.1034	-18.2326	-0.495135	84.8462	-31.5838	-31.2955	83.8206	-38.8433	-59.1247	90.2883	-47.593	-81.1189	114.842	8.04494	-72.6215	102.774	-12.3382	-94.915	99.0344	-42.2699	-77.775	133.929	0.5114	-78.7287	120.785	-22.4642	-96.8966	114.266	-56.7216	-77.4119	149.093	-10.1709	-73.4575	140.331	-34.6297	-88.6389	128.733	-61.0628	-69.3878	163.485	-21.9464	-61.2884	152.902	-43.2343	-75.8912	137.488	-63.5491	-61.2074	159.993	3.59648	-16.4156	158.108	-4.95393	15.8963	128.611	7.37244	1.01819	
53	0.441667	97.3108	-25.7787	-0.704905	83.4265	-45.1698	-27.2552	80.5302	-59.4617	-50.8359	91.0211	-73.9185	-75.54	115.989	-16.1925	-74.1609	107.59	-40.5238	-93.3696	98.4191	-63.8999	-71.8961	131.704	-25.7395	-79.5683	120.904	-57.9629	-93.4057	111.584	-82.3698	-68.3145	151.153	-39.5478	-74.1888	140.613	-65.2397	-82.3317	121.354	-83.1874	-58.3218	165.501	-49.2314	-57.957	153.994	-73.4526	-64.844	132.812	-82.9268	-46.7749	161.058	-10.7177	-19.1606	160.287	-11.2295	10.3315	127.998	1.28994	-5.97238	
54	0.45	95.8681	-29.2503	3.54888	79.6109	-50.5692	-16.2857	69.5809	-69.1926	-40.6393	72.8526	-87.3479	-54.6841	109.021	-39.6354	-73.8846	90.8633	-65.789	-82.2551	80.7008	-78.3726	-56.8937	121.563	-51.9874	-75.7069	103.342	-81.5869	-79.9612	88.7163	-96.5189	-52.1928	135.703	-64.5267	-66.2555	124.184	-90.9868	-67.9452	105.443	-101.433	-43.6393	149.518	-76.443	-51.3008	130.96	-95.8275	-47.8847	113.53	-94.6926	-21.2058	153.795	-28.6018	-22.6263	159.165	-23.6723	9.88041	127.661	-8.25535	-11.0477	
55	0.458333	92.8872	-22.9637	6.07397	70.2736	-42.1953	-12.5657	52.8433	-57.8691	-27.344	51.8015	-81.0853	-43.0692	95.7914	-44.512	-67.0228	74.1839	-67.1227	-72.4618	58.381	-73.6142	-47.4282	105.29	-62.3884	-66.8049	79.4808	-83.4097	-67.9256	62.5256	-92.7666	-32.8686	119.117	-78.0809	-54.1253	90.3839	-95.8303	-54.3465	76.4294	-101.339	-25.4416	126.254	-88.674	-38.2452	101.586	-103.849	-30.662	86.4605	-91.0044	-9.88293	148.213	-43.5308	-20.0117	153.733	-35.1621	12.2682	126.087	-12.8996	-10.0394	
56	0.466667	95.4467	-9.23798	5.34441	64.8892	-19.3473	-10.0436	44.8814	-30.7689	-26.7439	32.4762	-50.111	-37.574	88.0951	-41.9484	-63.0668	60.2461	-49.6001	-70.8736	37.5023	-48.5791	-45.0215	88.9044	-59.0021	-60.9432	58.4963	-69.1985	-61.1943	37.3895	-64.5876	-28.3486	93.8314	-73.9056	-47.3403	63.3649	-86.3327	-44.2823	48.3077	-78.714	-17.2596	95.9995	-86.4593	-30.4387	69.0649	-91.7024	-21.369	62.9989	-74.0091	2.40409	136.189	-55.1927	-12.6111	146.447	-45.3365	13.943	130.084	-20.2514	-9.307	
57	0.475	105.924	1.97047	3.18391	74.4623	4.78795	-17.0318	49.1906	2.73904	-34.6447	34.8402	-12.7877	-39.1169	86.7362	-30.9057	-63.1034	54.8978	-31.3154	-72.2425	32.7361	-18.4802	-51.3769	77.0541	-50.9424	-58.0502	43.1993	-42.9891	-60.9072	26.6936	-29.3966	-31.8305	74.9875	-65.5866	-42.5167	44.0819	-59.8922	-44.0334	31.5632	-39.0762	-19.9985	69.4144	-76.2811	-26.1408	46.8892	-63.3202	-23.2499	44.7238	-41.339	1.57686	122.297	-57.6068	-9.79821	132.887	-54.6726	15.5585	131.492	-27.2523	-8.55095	
58	0.483333	118.125	-0.505519	-1.91341	94.4263	14.3563	-20.5246	73.6041	20.8146	-40.8639	49.3722	6.41158	-48.113	89.6219	-29.8261	-62.545	62.8161	-14.7004	-77.7939	45.7411	5.75672	-64.2998	76.5124	-43.8212	-58.2144	44.9077	-26.2359	-65.6751	33.207	3.23071	-43.252	68.5529	-51.8016	-45.4481	38.9993	-37.6905	-46.8316	32.7368	-13.5698	-29.6749	58.6519	-61.3522	-25.6943	38.3419	-42.1338	-28.3858	38.0177	-18.8663	-8.59699	107.592	-62.3462	-2.52506	121.632	-58.9381	25.1571	132.176	-36.5396	-4.5782	
59	0.491667	129.299	-10.8844	-0.696603	114.319	8.15899	-27.0336	92.6723	9.35973	-48.5701	70.8163	6.32704	-56.5896	102.734	-35.2215	-65.4463	80.5245	-18.3883	-80.2571	65.6576	8.04817	-70.902	81.9918	-46.201	-62.5471	61.2461	-23.9605	-75.2242	51.0651	6.72725	-60.9695	69.7738	-53.9268	-47.1905	48.2807	-32.6947	-56.6934	44.2199	-5.63599	-40.8523	60.5655	-58.369	-27.1364	43.7567	-37.8285	-37.9668	47.1954	-12.7423	-25.3809	102.242	-66.6522	-3.8657	114.377	-64.2856	28.9722	133.392	-50.0994	0.793266	
60	0.5	144.252	-20.7368	2.88662	129.219	-10.8224	-26.1466	116.289	-4.78508	-53.3082	92.0225	-9.10762	-67.0473	119.141	-50.5132	-65.2923	106.101	-25.5905	-83.3796	97.0158	2.98383	-76.3321	104.803	-60.6668	-61.4731	90.9104	-37.9233	-82.7785	74.4235	-1.02455	-71.5648	83.8369	-63.8317	-52.1223	70.0334	-42.67	-64.6896	66.5136	-11.9144	-52.5309	71.8952	-65.6209	-30.875	65.7231	-43.7565	-49.7018	60.8308	-19.1951	-39.0879	107.689	-77.1272	1.80311	114.724	-71.7376	32.2204	140.216	-63.3819	4.21005	
61	0.508333	155.719	-30.6112	4.25677	147.66	-17.793	-25.8447	136.895	-18.453	-56.1385	116.035	-28.3299	-67.5998	149.209	-62.9584	-57.6091	133.224	-41.4154	-81.0634	126.949	-13.6283	-78.2509	127.679	-75.3896	-57.2639	120.496	-53.6007	-85.4686	107.024	-19.1832	-82.9899	112.78	-76.9815	-50.9501	100.141	-60.6765	-71.1121	91.4106	-28.651	-63.746	97.5643	-77.6435	-36.9232	87.5168	-63.011	-54.8664	87.1947	-29.6186	-50.1426	122.105	-84.0101	4.24453	124.023	-76.5958	34.8352	156.838	-68.157	12.6231	
